<svg width="95" viewBox="0 0 175 168" fill="none" xmlns="http://www.w3.org/2000/svg">
<path d="M25.2211 115L88 87.2794L150.779 115L25.2211 115Z" stroke="white" stroke-width="6"/>
<line x1="88" y1="74" x2="88" y2="86" stroke="white" stroke-width="6"/>
<mask id="path-3-inside-1_2_12" fill="white">
<path d="M71 63.5C71 60.2852 71.9392 57.1403 73.7021 54.452C75.465 51.7636 77.9749 49.6488 80.9233 48.3674C83.8717 47.086 87.1303 46.6938 90.2985 47.2391C93.4668 47.7843 96.4068 49.2433 98.7572 51.4366C101.108 53.6299 102.766 56.4621 103.529 59.5852C104.292 62.7082 104.125 65.9861 103.051 69.016C101.976 72.0458 100.04 74.6958 97.4793 76.6401C94.9191 78.5845 91.8467 79.7386 88.6395 79.9606L88.2259 73.9854C90.2688 73.844 92.226 73.1088 93.8568 71.8703C95.4877 70.6317 96.7212 68.9437 97.4058 67.0137C98.0904 65.0836 98.1963 62.9956 97.7104 61.0063C97.2245 59.0169 96.168 57.2128 94.6708 55.8156C93.1736 54.4185 91.3008 53.4891 89.2827 53.1418C87.2645 52.7944 85.1888 53.0443 83.3106 53.8605C81.4325 54.6768 79.8337 56.0239 78.7107 57.7364C77.5877 59.4489 76.9895 61.4521 76.9895 63.5L71 63.5Z"/>
</mask>
<path d="M71 63.5C71 60.2852 71.9392 57.1403 73.7021 54.452C75.465 51.7636 77.9749 49.6488 80.9233 48.3674C83.8717 47.086 87.1303 46.6938 90.2985 47.2391C93.4668 47.7843 96.4068 49.2433 98.7572 51.4366C101.108 53.6299 102.766 56.4621 103.529 59.5852C104.292 62.7082 104.125 65.9861 103.051 69.016C101.976 72.0458 100.04 74.6958 97.4793 76.6401C94.9191 78.5845 91.8467 79.7386 88.6395 79.9606L88.2259 73.9854C90.2688 73.844 92.226 73.1088 93.8568 71.8703C95.4877 70.6317 96.7212 68.9437 97.4058 67.0137C98.0904 65.0836 98.1963 62.9956 97.7104 61.0063C97.2245 59.0169 96.168 57.2128 94.6708 55.8156C93.1736 54.4185 91.3008 53.4891 89.2827 53.1418C87.2645 52.7944 85.1888 53.0443 83.3106 53.8605C81.4325 54.6768 79.8337 56.0239 78.7107 57.7364C77.5877 59.4489 76.9895 61.4521 76.9895 63.5L71 63.5Z" stroke="white" stroke-width="12" mask="url(#path-3-inside-1_2_12)"/>
<path d="M77 63.5C77 65.1569 75.6569 66.5 74 66.5C72.3431 66.5 71 65.1569 71 63.5C71 61.8431 72.3431 60.5 74 60.5C75.6569 60.5 77 61.8431 77 63.5Z" fill="white"/>
</svg>
