<svg width="175" height="168" viewBox="0 0 175 168" fill="none" xmlns="http://www.w3.org/2000/svg">
<path d="M85.1468 34.7812C86.0449 32.0172 89.9551 32.0172 90.8532 34.7812L100.348 64.0041C100.75 65.2401 101.902 66.077 103.201 66.077L133.928 66.077C136.834 66.077 138.043 69.7959 135.692 71.5041L110.833 89.5648C109.782 90.3288 109.342 91.6829 109.743 92.9189L119.238 122.142C120.136 124.906 116.973 127.204 114.622 125.496L89.7634 107.435C88.7119 106.671 87.2881 106.671 86.2366 107.435L61.3781 125.496C59.027 127.204 55.8636 124.906 56.7616 122.142L66.2567 92.9189C66.6583 91.6828 66.2184 90.3287 65.1669 89.5648L40.3084 71.5041C37.9573 69.7959 39.1656 66.077 42.0718 66.077L72.7986 66.077C74.0982 66.077 75.2501 65.2401 75.6517 64.0041L85.1468 34.7812Z" fill="#D0B69F"/>
</svg>
